<svg width="134" height="16" viewBox="0 0 134 16" fill="none" xmlns="http://www.w3.org/2000/svg">
<path d="M15.5802 1.35996C15.6869 1.55996 15.7469 1.73996 15.7602 1.89996C15.7869 2.05996 15.8002 2.29329 15.8002 2.59996V13.7C15.8002 14.62 15.5469 15.16 15.0402 15.32C14.7869 15.4 14.4669 15.44 14.0802 15.44C13.6935 15.44 13.3869 15.4066 13.1602 15.34C12.9335 15.2733 12.7602 15.1933 12.6402 15.1C12.5202 15.0066 12.4269 14.8733 12.3602 14.7C12.2935 14.4733 12.2602 14.1266 12.2602 13.66V6.95996C11.9269 7.37329 11.4402 8.03329 10.8002 8.93996C10.1602 9.83329 9.75353 10.3933 9.5802 10.62C9.40686 10.8466 9.28686 11.0066 9.2202 11.1C9.15353 11.18 8.98686 11.3 8.7202 11.46C8.46686 11.6066 8.18686 11.68 7.8802 11.68C7.58686 11.68 7.31353 11.6133 7.0602 11.48C6.8202 11.3333 6.64686 11.1933 6.5402 11.06L6.3802 10.84C6.11353 10.5066 5.58686 9.79996 4.8002 8.71996C4.01353 7.62663 3.58686 7.03996 3.5202 6.95996V13.7C3.5202 14.0066 3.50686 14.24 3.4802 14.4C3.46686 14.5466 3.40686 14.7133 3.3002 14.9C3.1002 15.26 2.5802 15.44 1.7402 15.44C0.926862 15.44 0.420195 15.26 0.220195 14.9C0.113529 14.7133 0.046862 14.54 0.0201953 14.38C0.00686202 14.22 0.000195369 13.98 0.000195369 13.66V2.55996C0.000195369 2.25329 0.00686202 2.02663 0.0201953 1.87996C0.046862 1.71996 0.113529 1.53996 0.220195 1.33996C0.420195 0.993293 0.940195 0.81996 1.7802 0.81996C2.1402 0.81996 2.44686 0.866627 2.7002 0.95996C2.96686 1.03996 3.1402 1.12663 3.2202 1.21996L3.3402 1.33996L7.8802 7.29996C10.1469 4.29996 11.6602 2.31996 12.4202 1.35996C12.6469 0.99996 13.1802 0.81996 14.0202 0.81996C14.8735 0.81996 15.3935 0.99996 15.5802 1.35996ZM17.4025 6.67996C17.4025 6.37329 17.4092 6.14663 17.4225 5.99996C17.4492 5.83996 17.5092 5.65996 17.6025 5.45996C17.7892 5.11329 18.3092 4.93996 19.1625 4.93996C19.8025 4.93996 20.2559 5.05329 20.5225 5.27996C20.7492 5.46663 20.8692 5.75329 20.8825 6.13996C20.8959 6.27329 20.9025 6.46663 20.9025 6.71996V13.72C20.9025 14.0266 20.8892 14.26 20.8625 14.42C20.8492 14.5666 20.7892 14.74 20.6825 14.94C20.5092 15.2866 19.9959 15.46 19.1425 15.46C18.3025 15.46 17.7892 15.28 17.6025 14.92C17.5092 14.72 17.4492 14.5466 17.4225 14.4C17.4092 14.2533 17.4025 14.02 17.4025 13.7V6.67996ZM20.6825 2.97996C20.5892 3.16663 20.4159 3.29996 20.1625 3.37996C19.9092 3.45996 19.5692 3.49996 19.1425 3.49996C18.7292 3.49996 18.3959 3.45996 18.1425 3.37996C17.8892 3.29996 17.7092 3.15996 17.6025 2.95996C17.5092 2.75996 17.4492 2.58663 17.4225 2.43996C17.4092 2.27996 17.4025 2.04663 17.4025 1.73996C17.4025 1.43329 17.4092 1.20663 17.4225 1.05996C17.4492 0.89996 17.5092 0.726627 17.6025 0.53996C17.7892 0.17996 18.3092 -4.02927e-05 19.1625 -4.02927e-05C20.0025 -4.02927e-05 20.5092 0.17996 20.6825 0.53996C20.7892 0.739961 20.8492 0.919961 20.8625 1.07996C20.8892 1.22663 20.9025 1.45329 20.9025 1.75996C20.9025 2.06663 20.8892 2.29996 20.8625 2.45996C20.8492 2.60663 20.7892 2.77996 20.6825 2.97996ZM78.0658 10.2C78.0658 10.76 78.2525 11.2 78.6258 11.52C78.9992 11.8266 79.3925 11.98 79.8058 11.98C80.2325 11.98 80.6258 11.86 80.9858 11.62C81.3592 11.3666 81.6592 11.24 81.8858 11.24C82.2858 11.24 82.7725 11.5933 83.3458 12.3C83.6525 12.6866 83.8058 13.0333 83.8058 13.34C83.8058 13.8466 83.4392 14.32 82.7058 14.76C81.9458 15.2933 81.0125 15.56 79.9058 15.56C78.6658 15.56 77.4725 15.1133 76.3258 14.22C75.7792 13.7933 75.3325 13.2266 74.9858 12.52C74.6392 11.8 74.4658 11.0133 74.4658 10.16C74.4658 9.29329 74.6392 8.51329 74.9858 7.81996C75.3325 7.11329 75.7792 6.54663 76.3258 6.11996C77.4325 5.23996 78.6125 4.79996 79.8658 4.79996C80.3725 4.79996 80.8658 4.87329 81.3458 5.01996C81.8258 5.15329 82.1792 5.28663 82.4058 5.41996L82.7258 5.61996C82.9658 5.77996 83.1525 5.90663 83.2858 5.99996C83.6325 6.26663 83.8058 6.57329 83.8058 6.91996C83.8058 7.25329 83.6658 7.63329 83.3858 8.05996C82.9058 8.79329 82.4458 9.15996 82.0058 9.15996C81.7525 9.15996 81.3925 9.01329 80.9258 8.71996C80.6858 8.49329 80.3392 8.37996 79.8858 8.37996C79.4458 8.37996 79.0325 8.53996 78.6458 8.85996C78.2592 9.17996 78.0658 9.62663 78.0658 10.2ZM84.7979 10.2C84.7979 8.59996 85.3579 7.27996 86.4779 6.23996C87.5979 5.19996 88.8779 4.67996 90.3179 4.67996C91.7579 4.67996 93.0312 5.19996 94.1379 6.23996C95.2445 7.26663 95.7979 8.57996 95.7979 10.18C95.7979 11.2866 95.5112 12.2733 94.9379 13.14C94.3645 13.9933 93.6645 14.6266 92.8379 15.04C92.0245 15.44 91.1779 15.64 90.2979 15.64C89.4179 15.64 88.5645 15.4266 87.7379 15C86.9112 14.56 86.2112 13.92 85.6379 13.08C85.0779 12.2266 84.7979 11.2666 84.7979 10.2ZM88.9779 11.64C89.4045 11.96 89.8379 12.12 90.2779 12.12C90.7179 12.12 91.1579 11.9533 91.5979 11.62C92.0379 11.2866 92.2579 10.7933 92.2579 10.14C92.2579 9.48663 92.0512 8.99996 91.6379 8.67996C91.2245 8.35996 90.7779 8.19996 90.2979 8.19996C89.8179 8.19996 89.3712 8.36663 88.9579 8.69996C88.5445 9.03329 88.3379 9.52663 88.3379 10.18C88.3379 10.82 88.5512 11.3066 88.9779 11.64ZM102.95 4.91996C104.283 4.91996 105.39 5.43329 106.27 6.45996C107.163 7.47329 107.61 8.71329 107.61 10.18V13.7C107.61 14.0066 107.597 14.24 107.57 14.4C107.557 14.5466 107.503 14.7133 107.41 14.9C107.223 15.26 106.703 15.44 105.85 15.44C104.903 15.44 104.357 15.1933 104.21 14.7C104.13 14.4733 104.09 14.1333 104.09 13.68V10.16C104.09 9.61329 103.93 9.18663 103.61 8.87996C103.303 8.57329 102.883 8.41996 102.35 8.41996C101.83 8.41996 101.403 8.57996 101.07 8.89996C100.75 9.21996 100.59 9.63996 100.59 10.16V13.7C100.59 14.0066 100.577 14.24 100.55 14.4C100.537 14.5466 100.477 14.7133 100.37 14.9C100.197 15.26 99.6834 15.44 98.83 15.44C97.99 15.44 97.4767 15.26 97.29 14.9C97.1967 14.7 97.1367 14.5266 97.11 14.38C97.0967 14.22 97.09 13.9866 97.09 13.68V6.59996C97.09 6.30663 97.0967 6.08663 97.11 5.93996C97.1367 5.77996 97.2034 5.60663 97.31 5.41996C97.4967 5.08663 98.01 4.91996 98.85 4.91996C99.6634 4.91996 100.163 5.07329 100.35 5.37996C100.483 5.60663 100.55 5.87996 100.55 6.19996C100.603 6.10663 100.723 5.97329 100.91 5.79996C101.097 5.62663 101.277 5.48663 101.45 5.37996C101.903 5.07329 102.403 4.91996 102.95 4.91996Z" fill="white"/>
<path d="M38.7788 12.98C38.9788 13.46 39.0788 13.8066 39.0788 14.02C39.0788 14.5266 38.6655 14.9533 37.8388 15.3C37.4121 15.4866 37.0655 15.58 36.7988 15.58C36.5455 15.58 36.3321 15.52 36.1588 15.4C35.9988 15.2666 35.8788 15.1333 35.7988 15C35.6655 14.7466 35.1455 13.54 34.2388 11.38L33.6188 11.42H31.0988V13.68C31.0988 13.9866 31.0855 14.22 31.0588 14.38C31.0455 14.5266 30.9855 14.7 30.8788 14.9C30.6921 15.26 30.1721 15.44 29.3188 15.44C28.3855 15.44 27.8388 15.1933 27.6788 14.7C27.5988 14.4733 27.5588 14.1266 27.5588 13.66V2.55996C27.5588 2.25329 27.5655 2.02663 27.5788 1.87996C27.6055 1.71996 27.6721 1.53996 27.7788 1.33996C27.9655 0.97996 28.4855 0.79996 29.3388 0.79996H33.6588C34.8321 0.79996 35.9721 1.22663 37.0788 2.07996C37.6121 2.49329 38.0521 3.05329 38.3988 3.75996C38.7455 4.46663 38.9188 5.25329 38.9188 6.11996C38.9188 7.62663 38.4188 8.86663 37.4188 9.83996C37.7121 10.5466 38.1655 11.5933 38.7788 12.98ZM31.0988 7.87996H33.6588C34.0455 7.87996 34.4321 7.73329 34.8188 7.43996C35.2055 7.14663 35.3988 6.70663 35.3988 6.11996C35.3988 5.53329 35.2055 5.09329 34.8188 4.79996C34.4321 4.49329 34.0321 4.33996 33.6188 4.33996H31.0988V7.87996ZM49.9454 8.93996C49.9454 9.75329 49.7387 10.36 49.3254 10.76C48.9254 11.1466 48.4787 11.34 47.9854 11.34H43.2454C43.2454 11.7133 43.4654 12.0266 43.9054 12.28C44.3454 12.5333 44.7854 12.66 45.2254 12.66C45.9987 12.66 46.6054 12.58 47.0454 12.42L47.2654 12.34C47.5854 12.1933 47.852 12.12 48.0654 12.12C48.492 12.12 48.8587 12.42 49.1654 13.02C49.3387 13.38 49.4254 13.6866 49.4254 13.94C49.4254 15.1266 48.0054 15.72 45.1654 15.72C44.1787 15.72 43.2987 15.5533 42.5254 15.22C41.7654 14.8733 41.172 14.42 40.7454 13.86C39.9054 12.78 39.4854 11.5733 39.4854 10.24C39.4854 8.55996 40.0254 7.21996 41.1054 6.21996C42.1987 5.20663 43.5587 4.69996 45.1854 4.69996C47.0387 4.69996 48.3987 5.35329 49.2654 6.65996C49.7187 7.35329 49.9454 8.11329 49.9454 8.93996ZM45.7254 9.51996C46.232 9.51996 46.4854 9.30663 46.4854 8.87996C46.4854 8.57329 46.3654 8.32663 46.1254 8.13996C45.8987 7.95329 45.5654 7.85996 45.1254 7.85996C44.6987 7.85996 44.272 8.03996 43.8454 8.39996C43.4187 8.74663 43.2054 9.11996 43.2054 9.51996H45.7254ZM51.3302 14.52C51.0769 14.36 50.9502 14.1066 50.9502 13.76C50.9502 13.4133 51.2035 12.8866 51.7102 12.18C51.8569 11.9533 52.0902 11.84 52.4102 11.84C52.7435 11.84 53.1902 12.0066 53.7502 12.34C54.3102 12.66 54.8169 12.82 55.2702 12.82C56.0835 12.82 56.4902 12.66 56.4902 12.34C56.4902 12.0866 56.0435 11.9 55.1502 11.78C54.3102 11.66 53.4769 11.3466 52.6502 10.84C52.2635 10.6 51.9435 10.2266 51.6902 9.71996C51.4369 9.19996 51.3102 8.58663 51.3102 7.87996C51.3102 5.77329 52.7569 4.71996 55.6502 4.71996C56.5969 4.71996 57.5702 4.94663 58.5702 5.39996C59.0369 5.61329 59.2702 5.87996 59.2702 6.19996C59.2702 6.51996 59.1235 6.91329 58.8302 7.37996C58.5369 7.84663 58.2369 8.07996 57.9302 8.07996C57.7702 8.07996 57.4702 7.97996 57.0302 7.77996C56.6035 7.57996 56.1369 7.47996 55.6302 7.47996C54.8435 7.47996 54.4502 7.62663 54.4502 7.91996C54.4502 8.31996 54.9035 8.57996 55.8102 8.69996C56.6902 8.79329 57.5435 9.04663 58.3702 9.45996C58.7569 9.64663 59.0769 9.97329 59.3302 10.44C59.5969 10.8933 59.7302 11.4666 59.7302 12.16C59.7302 12.8533 59.5969 13.4466 59.3302 13.94C59.0769 14.42 58.7169 14.78 58.2502 15.02C57.3969 15.4333 56.3235 15.64 55.0302 15.64C53.7502 15.64 52.5169 15.2666 51.3302 14.52ZM66.8429 8.45996L65.5429 8.37996V11.14C65.5429 11.5 65.5962 11.76 65.7029 11.92C65.8229 12.08 66.0362 12.16 66.3429 12.16C66.6629 12.16 66.9029 12.1733 67.0629 12.2C67.2362 12.2133 67.4162 12.2733 67.6029 12.38C67.9095 12.5533 68.0629 13 68.0629 13.72C68.0629 14.56 67.8762 15.0733 67.5029 15.26C67.3029 15.3533 67.1229 15.4133 66.9629 15.44C66.8162 15.4533 66.5962 15.46 66.3029 15.46C64.9162 15.46 63.8629 15.1466 63.1429 14.52C62.4229 13.8933 62.0629 12.8333 62.0629 11.34V8.37996C61.8095 8.41996 61.5362 8.43996 61.2429 8.43996C60.9495 8.43996 60.7029 8.32663 60.5029 8.09996C60.3162 7.87329 60.2229 7.48663 60.2229 6.93996C60.2229 6.39329 60.2562 5.99996 60.3229 5.75996C60.3895 5.50663 60.4829 5.32663 60.6029 5.21996C60.8162 5.04663 61.0829 4.95996 61.4029 4.95996L62.0629 5.03996V2.97996C62.0629 2.67329 62.0695 2.44663 62.0829 2.29996C62.1095 2.15329 62.1762 1.99329 62.2829 1.81996C62.4562 1.48663 62.9695 1.31996 63.8229 1.31996C64.7295 1.31996 65.2695 1.56663 65.4429 2.05996C65.5095 2.27329 65.5429 2.61329 65.5429 3.07996V5.03996C66.1295 4.98663 66.5695 4.95996 66.8629 4.95996C67.1695 4.95996 67.3962 4.97329 67.5429 4.99996C67.7029 5.01329 67.8829 5.07329 68.0829 5.17996C68.4295 5.35329 68.6029 5.86663 68.6029 6.71996C68.6029 7.55996 68.4229 8.07329 68.0629 8.25996C67.8629 8.35329 67.6829 8.41329 67.5229 8.43996C67.3762 8.45329 67.1495 8.45996 66.8429 8.45996Z" fill="#F97316"/>
<path d="M114.278 2.55996C114.278 2.25329 114.284 2.02663 114.298 1.87996C114.324 1.71996 114.391 1.53996 114.498 1.33996C114.684 0.97996 115.204 0.79996 116.058 0.79996C116.991 0.79996 117.544 1.04663 117.718 1.53996C117.784 1.76663 117.818 2.11329 117.818 2.57996V13.7C117.818 14.02 117.804 14.2533 117.778 14.4C117.764 14.5466 117.704 14.72 117.598 14.92C117.411 15.28 116.891 15.46 116.038 15.46C115.104 15.46 114.558 15.2066 114.398 14.7C114.318 14.4866 114.278 14.1466 114.278 13.68V2.55996ZM127.874 1.83996L133.274 13C133.501 13.4533 133.614 13.7933 133.614 14.02C133.614 14.5 133.228 14.9333 132.454 15.32C132.001 15.5466 131.641 15.66 131.374 15.66C131.121 15.66 130.908 15.6 130.734 15.48C130.574 15.36 130.454 15.2333 130.374 15.1C130.308 14.9666 130.208 14.7666 130.074 14.5L129.034 12.34H123.494L122.454 14.5C122.321 14.7666 122.214 14.96 122.134 15.08C122.068 15.2 121.948 15.3266 121.774 15.46C121.614 15.58 121.401 15.64 121.134 15.64C120.881 15.64 120.528 15.5266 120.074 15.3C119.301 14.9266 118.914 14.5 118.914 14.02C118.914 13.7933 119.028 13.4533 119.254 13L124.654 1.81996C124.801 1.51329 125.021 1.26663 125.314 1.07996C125.621 0.893293 125.941 0.79996 126.274 0.79996C126.994 0.79996 127.528 1.14663 127.874 1.83996ZM126.254 6.63996L124.934 9.37996H127.594L126.254 6.63996Z" fill="#FF7846"/>
</svg>
